<svg xmlns="http://www.w3.org/2000/svg" width="442.007" height="510.294" viewBox="0 0 442.007 510.294">
  <g id="Group_1766" data-name="Group 1766" transform="translate(-1145.993 -2645.947)">
    <g id="Group_1757" data-name="Group 1757" transform="translate(4503.284 4218.526)">
      <g id="box-svgrepo-com" transform="translate(-3191.431 -1185.922)">
        <path id="Path_12" data-name="Path 12" d="M4,90.853V36.885a5.893,5.893,0,0,1,3-5.136l.107-.06L56.512,3.9l.376-.211a4.6,4.6,0,0,1,4.512,0l50.2,28.239a5.267,5.267,0,0,1,2.685,4.59V90.853a5.5,5.5,0,0,1-2.707,4.738L61.756,124.954a5.146,5.146,0,0,1-5.225,0L6.707,95.591A5.5,5.5,0,0,1,4,90.853Z" transform="translate(-4 -3.098)" fill="none" stroke="#e0e0e0" stroke-width="2"/>
        <path id="Path_13" data-name="Path 13" d="M12,74.037V12" transform="translate(43.144 49.359)" fill="none" stroke="#e0e0e0" stroke-width="2"/>
        <path id="Path_14" data-name="Path 14" d="M59.144,38.518,4,7.5" transform="translate(-4 22.84)" fill="none" stroke="#e0e0e0" stroke-width="2"/>
        <path id="Path_15" data-name="Path 15" d="M67.144,7.5,12,38.518" transform="translate(43.144 22.84)" fill="none" stroke="#e0e0e0" stroke-width="2"/>
      </g>
      <g id="box-svgrepo-com-2" data-name="box-svgrepo-com" transform="translate(-3191.431 -1378.724)">
        <path id="Path_12-2" data-name="Path 12" d="M4,90.853V36.885a5.893,5.893,0,0,1,3-5.136l.107-.06L56.512,3.9l.376-.211a4.6,4.6,0,0,1,4.512,0l50.2,28.239a5.267,5.267,0,0,1,2.685,4.59V90.853a5.5,5.5,0,0,1-2.707,4.738L61.756,124.954a5.146,5.146,0,0,1-5.225,0L6.707,95.591A5.5,5.5,0,0,1,4,90.853Z" transform="translate(-4 -3.098)" fill="none" stroke="#e0e0e0" stroke-width="2"/>
        <path id="Path_13-2" data-name="Path 13" d="M12,74.037V12" transform="translate(43.144 49.359)" fill="none" stroke="#e0e0e0" stroke-width="2"/>
        <path id="Path_14-2" data-name="Path 14" d="M59.144,38.518,4,7.5" transform="translate(-4 22.84)" fill="none" stroke="#e0e0e0" stroke-width="2"/>
        <path id="Path_15-2" data-name="Path 15" d="M67.144,7.5,12,38.518" transform="translate(43.144 22.84)" fill="none" stroke="#e0e0e0" stroke-width="2"/>
      </g>
      <g id="box-svgrepo-com-3" data-name="box-svgrepo-com" transform="translate(-3191.431 -1571.526)">
        <path id="Path_12-3" data-name="Path 12" d="M4,90.853V36.885a5.893,5.893,0,0,1,3-5.136l.107-.06L56.512,3.9l.376-.211a4.6,4.6,0,0,1,4.512,0l50.2,28.239a5.267,5.267,0,0,1,2.685,4.59V90.853a5.5,5.5,0,0,1-2.707,4.738L61.756,124.954a5.146,5.146,0,0,1-5.225,0L6.707,95.591A5.5,5.5,0,0,1,4,90.853Z" transform="translate(-4 -3.098)" fill="none" stroke="#e0e0e0" stroke-width="2"/>
        <path id="Path_13-3" data-name="Path 13" d="M12,74.037V12" transform="translate(43.144 49.359)" fill="none" stroke="#e0e0e0" stroke-width="2"/>
        <path id="Path_14-3" data-name="Path 14" d="M59.144,38.518,4,7.5" transform="translate(-4 22.84)" fill="none" stroke="#e0e0e0" stroke-width="2"/>
        <path id="Path_15-3" data-name="Path 15" d="M67.144,7.5,12,38.518" transform="translate(43.144 22.84)" fill="none" stroke="#e0e0e0" stroke-width="2"/>
      </g>
      <g id="box-svgrepo-com-4" data-name="box-svgrepo-com" transform="translate(-3026.572 -1475.125)">
        <path id="Path_12-4" data-name="Path 12" d="M4,90.853V36.885a5.893,5.893,0,0,1,3-5.136l.107-.06L56.512,3.9l.376-.211a4.6,4.6,0,0,1,4.512,0l50.2,28.239a5.267,5.267,0,0,1,2.685,4.59V90.853a5.5,5.5,0,0,1-2.707,4.738L61.756,124.954a5.146,5.146,0,0,1-5.225,0L6.707,95.591A5.5,5.5,0,0,1,4,90.853Z" transform="translate(-4 -3.098)" fill="none" stroke="#e0e0e0" stroke-width="2"/>
        <path id="Path_13-4" data-name="Path 13" d="M12,74.037V12" transform="translate(43.144 49.359)" fill="none" stroke="#e0e0e0" stroke-width="2"/>
        <path id="Path_14-4" data-name="Path 14" d="M59.144,38.518,4,7.5" transform="translate(-4 22.84)" fill="none" stroke="#e0e0e0" stroke-width="2"/>
        <path id="Path_15-4" data-name="Path 15" d="M67.144,7.5,12,38.518" transform="translate(43.144 22.84)" fill="none" stroke="#e0e0e0" stroke-width="2"/>
      </g>
      <g id="box-svgrepo-com-5" data-name="box-svgrepo-com" transform="translate(-3356.292 -1475.125)">
        <path id="Path_12-5" data-name="Path 12" d="M4,90.853V36.885a5.893,5.893,0,0,1,3-5.136l.107-.06L56.512,3.9l.376-.211a4.6,4.6,0,0,1,4.512,0l50.2,28.239a5.267,5.267,0,0,1,2.685,4.59V90.853a5.5,5.5,0,0,1-2.707,4.738L61.756,124.954a5.146,5.146,0,0,1-5.225,0L6.707,95.591A5.5,5.5,0,0,1,4,90.853Z" transform="translate(-4 -3.098)" fill="none" stroke="#e0e0e0" stroke-width="2"/>
        <path id="Path_13-5" data-name="Path 13" d="M12,74.037V12" transform="translate(43.144 49.359)" fill="none" stroke="#e0e0e0" stroke-width="2"/>
        <path id="Path_14-5" data-name="Path 14" d="M59.144,38.518,4,7.5" transform="translate(-4 22.84)" fill="none" stroke="#e0e0e0" stroke-width="2"/>
        <path id="Path_15-5" data-name="Path 15" d="M67.144,7.5,12,38.518" transform="translate(43.144 22.84)" fill="none" stroke="#e0e0e0" stroke-width="2"/>
      </g>
      <g id="box-svgrepo-com-6" data-name="box-svgrepo-com" transform="translate(-3026.572 -1282.323)">
        <path id="Path_12-6" data-name="Path 12" d="M4,90.853V36.885a5.893,5.893,0,0,1,3-5.136l.107-.06L56.512,3.9l.376-.211a4.6,4.6,0,0,1,4.512,0l50.2,28.239a5.267,5.267,0,0,1,2.685,4.59V90.853a5.5,5.5,0,0,1-2.707,4.738L61.756,124.954a5.146,5.146,0,0,1-5.225,0L6.707,95.591A5.5,5.5,0,0,1,4,90.853Z" transform="translate(-4 -3.098)" fill="none" stroke="#e0e0e0" stroke-width="2"/>
        <path id="Path_13-6" data-name="Path 13" d="M12,74.037V12" transform="translate(43.144 49.359)" fill="none" stroke="#e0e0e0" stroke-width="2"/>
        <path id="Path_14-6" data-name="Path 14" d="M59.144,38.518,4,7.5" transform="translate(-4 22.84)" fill="none" stroke="#e0e0e0" stroke-width="2"/>
        <path id="Path_15-6" data-name="Path 15" d="M67.144,7.5,12,38.518" transform="translate(43.144 22.84)" fill="none" stroke="#e0e0e0" stroke-width="2"/>
      </g>
      <g id="box-svgrepo-com-7" data-name="box-svgrepo-com" transform="translate(-3356.292 -1282.323)">
        <path id="Path_12-7" data-name="Path 12" d="M4,90.853V36.885a5.893,5.893,0,0,1,3-5.136l.107-.06L56.512,3.9l.376-.211a4.6,4.6,0,0,1,4.512,0l50.2,28.239a5.267,5.267,0,0,1,2.685,4.59V90.853a5.5,5.5,0,0,1-2.707,4.738L61.756,124.954a5.146,5.146,0,0,1-5.225,0L6.707,95.591A5.5,5.5,0,0,1,4,90.853Z" transform="translate(-4 -3.098)" fill="none" stroke="#e0e0e0" stroke-width="2"/>
        <path id="Path_13-7" data-name="Path 13" d="M12,74.037V12" transform="translate(43.144 49.359)" fill="none" stroke="#e0e0e0" stroke-width="2"/>
        <path id="Path_14-7" data-name="Path 14" d="M59.144,38.518,4,7.5" transform="translate(-4 22.84)" fill="none" stroke="#e0e0e0" stroke-width="2"/>
        <path id="Path_15-7" data-name="Path 15" d="M67.144,7.5,12,38.518" transform="translate(43.144 22.84)" fill="none" stroke="#e0e0e0" stroke-width="2"/>
      </g>
      <line id="Line_7" data-name="Line 7" y2="97.798" transform="translate(-3302.503 -1345.892)" fill="none" stroke="#e0e0e0" stroke-width="2" stroke-dasharray="3 3"/>
      <line id="Line_8" data-name="Line 8" y2="97.798" transform="translate(-2971.428 -1345.892)" fill="none" stroke="#e0e0e0" stroke-width="2" stroke-dasharray="3 3"/>
      <line id="Line_10" data-name="Line 10" y2="97.798" transform="translate(-3136.287 -1250.888)" fill="none" stroke="#e0e0e0" stroke-width="2" stroke-dasharray="3 3"/>
      <line id="Line_11" data-name="Line 11" x1="79.457" y2="46.803" transform="translate(-3078.784 -1397.585)" fill="none" stroke="#e0e0e0" stroke-width="2" stroke-dasharray="3 3"/>
      <line id="Line_14" data-name="Line 14" x2="79.457" y2="46.803" transform="translate(-3272.984 -1396.188)" fill="none" stroke="#e0e0e0" stroke-width="2" stroke-dasharray="3 3"/>
      <line id="Line_15" data-name="Line 15" x2="47.323" y2="29.339" transform="translate(-3078.784 -1284.418)" fill="none" stroke="#e0e0e0" stroke-width="2" stroke-dasharray="3 3"/>
      <line id="Line_16" data-name="Line 16" x1="47.323" y2="29.339" transform="translate(-3243.645 -1284.668)" fill="none" stroke="#e0e0e0" stroke-width="2" stroke-dasharray="3 3"/>
      <line id="Line_12" data-name="Line 12" x1="79.457" y2="46.803" transform="translate(-3078.784 -1203.386)" fill="none" stroke="#e0e0e0" stroke-width="2" stroke-dasharray="3 3"/>
      <line id="Line_17" data-name="Line 17" x1="79.457" y2="46.803" transform="translate(-3245.042 -1492.589)" fill="none" stroke="#e0e0e0" stroke-width="2" stroke-dasharray="3 3"/>
      <line id="Line_13" data-name="Line 13" x2="79.457" y2="46.803" transform="translate(-3272.984 -1201.989)" fill="none" stroke="#e0e0e0" stroke-width="2" stroke-dasharray="3 3"/>
      <line id="Line_18" data-name="Line 18" x2="79.457" y2="46.803" transform="translate(-3108.124 -1492.589)" fill="none" stroke="#e0e0e0" stroke-width="2" stroke-dasharray="3 3"/>
      <line id="Line_9" data-name="Line 9" y2="58.679" transform="translate(-3136.287 -1442.293)" fill="none" stroke="#e0e0e0" stroke-width="2" stroke-dasharray="3 3"/>
    </g>
    <g id="Group_1758" data-name="Group 1758" transform="translate(206.264 2403.393)">
      <path id="Path_86" data-name="Path 86" d="M-983.719,291V398.393h75.542V315.826l-11.759-11.759L-933,291Z" transform="translate(2106.448 153.607)" fill="#fff" stroke="#6543ac" stroke-width="4"/>
      <path id="Path_87" data-name="Path 87" d="M-936.964,444.607v25.544h24.943" transform="translate(2110 1)" fill="#fff" stroke="#6543ac" stroke-width="4"/>
      <line id="Line_27" data-name="Line 27" x2="29.13" transform="translate(1139.5 484.5)" fill="none" stroke="#31eab4" stroke-linecap="round" stroke-width="5" stroke-dasharray="0 8"/>
      <line id="Line_28" data-name="Line 28" x2="41" transform="translate(1139.5 498.5)" fill="none" stroke="#31eab4" stroke-linecap="round" stroke-width="5" stroke-dasharray="0 8"/>
      <line id="Line_29" data-name="Line 29" x2="41" transform="translate(1139.5 512.5)" fill="none" stroke="#31eab4" stroke-linecap="round" stroke-width="5" stroke-dasharray="0 8"/>
      <line id="Line_30" data-name="Line 30" x2="41" transform="translate(1139.5 526.5)" fill="none" stroke="#31eab4" stroke-linecap="round" stroke-width="5" stroke-dasharray="0 8"/>
    </g>
    <g id="Ellipse_19" data-name="Ellipse 19" transform="translate(1338.993 2682)" fill="#3bc9f8" stroke="#6543ac" stroke-width="4">
      <circle cx="26" cy="26" r="26" stroke="none"/>
      <circle cx="26" cy="26" r="24" fill="none"/>
    </g>
    <g id="Ellipse_24" data-name="Ellipse 24" transform="translate(1338.993 3069)" fill="#fff" stroke="#3bc9f8" stroke-width="4">
      <circle cx="26" cy="26" r="26" stroke="none"/>
      <circle cx="26" cy="26" r="24" fill="none"/>
    </g>
    <g id="Ellipse_21" data-name="Ellipse 21" transform="translate(1169.993 2772)" fill="#fff" stroke="#6543ac" stroke-width="4">
      <circle cx="30.5" cy="30.5" r="30.5" stroke="none"/>
      <circle cx="30.5" cy="30.5" r="28.5" fill="none"/>
    </g>
    <g id="Ellipse_22" data-name="Ellipse 22" transform="translate(1183.993 2981)" fill="#6543ac" stroke="#3bc9f8" stroke-width="4">
      <circle cx="16.5" cy="16.5" r="16.5" stroke="none"/>
      <circle cx="16.5" cy="16.5" r="14.5" fill="none"/>
    </g>
    <g id="Ellipse_23" data-name="Ellipse 23" transform="translate(1515.993 2786)" fill="#fff" stroke="#3bc9f8" stroke-width="4">
      <circle cx="16.5" cy="16.5" r="16.5" stroke="none"/>
      <circle cx="16.5" cy="16.5" r="14.5" fill="none"/>
    </g>
    <g id="Ellipse_20" data-name="Ellipse 20" transform="translate(1496.993 2959)" fill="#3bc9f8" stroke="#6543ac" stroke-width="4">
      <circle cx="35" cy="35" r="35" stroke="none"/>
      <circle cx="35" cy="35" r="33" fill="none"/>
    </g>
  </g>
</svg>
