<svg xmlns="http://www.w3.org/2000/svg" width="12" height="14" viewBox="0 0 12 14">
  <g id="Group_2606" data-name="Group 2606" transform="translate(-331.667 -322.674)">
    <path id="Path_789" data-name="Path 789" d="M341.562,326.025a3.24,3.24,0,0,0-1.038-2.369,3.627,3.627,0,0,0-2.506-.981h-.7a3.627,3.627,0,0,0-2.506.981,3.24,3.24,0,0,0-1.038,2.369v1.957h-1.719a.376.376,0,0,0-.386.365v7.962a.376.376,0,0,0,.386.365h11.228a.376.376,0,0,0,.386-.365v-7.962a.376.376,0,0,0-.386-.365h-1.719v-1.957Zm-7.018,1.659v-1.659a2.534,2.534,0,0,1,.812-1.853,2.836,2.836,0,0,1,1.96-.768h.7a2.836,2.836,0,0,1,1.96.768,2.534,2.534,0,0,1,.812,1.853v1.957h-6.246Zm8.035,1.028h.316v7.232H332.439v-7.232h10.14Z" transform="translate(0 0)" fill="#6543ac"/>
    <circle id="Ellipse_29" data-name="Ellipse 29" cx="0.961" cy="0.961" r="0.961" transform="translate(334.018 331.255)" fill="#6543ac"/>
    <circle id="Ellipse_30" data-name="Ellipse 30" cx="0.961" cy="0.961" r="0.961" transform="translate(336.706 331.255)" fill="#6543ac"/>
    <circle id="Ellipse_31" data-name="Ellipse 31" cx="0.961" cy="0.961" r="0.961" transform="translate(339.29 331.343) rotate(-5.655)" fill="#6543ac"/>
  </g>
</svg>
