<svg xmlns="http://www.w3.org/2000/svg" xmlns:xlink="http://www.w3.org/1999/xlink" width="184.576" height="75.618" viewBox="0 0 184.576 75.618">
  <defs>
    <linearGradient id="linear-gradient" x1="0.5" x2="0.5" y2="1" gradientUnits="objectBoundingBox">
      <stop offset="0" stop-color="#3bc9f8"/>
      <stop offset="1" stop-color="#675194"/>
    </linearGradient>
  </defs>
  <g id="Group_1709" data-name="Group 1709" transform="translate(-331.409 -425.255)">
    <path id="Path_5" data-name="Path 5" d="M396.754,443.927l-6.439-3.722a.632.632,0,0,0-.63,0l-5.494,3.175v-6.343a.628.628,0,0,0-.316-.546l-6.439-3.722a.628.628,0,0,0-.63,0l-5.494,3.175V429.6a.628.628,0,0,0-.316-.546l-6.439-3.715a.628.628,0,0,0-.63,0l-6.44,3.715.316.546-.316-.546-6.439,3.722h0l-6.44,3.715.287.5-.287-.5-6.439,3.721h0l-6.439,3.715h0a.632.632,0,0,0-.316.547v37.179a.632.632,0,0,0,.316.547l32.2,18.589a.62.62,0,0,0,.315.085h0a.625.625,0,0,0,.316-.085l6.439-3.715a.628.628,0,0,0,.316-.546v-6.346l5.492,3.17a.62.62,0,0,0,.315.085h0a.632.632,0,0,0,.317-.084l6.439-3.715a.63.63,0,0,0,.316-.547v-6.345l5.492,3.17A.627.627,0,0,0,390,486h0a.624.624,0,0,0,.317-.084l6.439-3.715a.63.63,0,0,0,.316-.546V444.474A.632.632,0,0,0,396.754,443.927Zm-19.634,4.261-.315-.546-6.44,3.722h0L364.24,454.9l-5.177-2.987,5.492-3.168c.007,0,.009-.011.015-.015l6.424-3.706-.315-.546.315.546,6.44-3.722h0l5.493-3.168v5.98l-6.124,3.533ZM364.212,440.7l-.286-.5-6.44,3.722h0l-6.13,3.536-5.172-2.989,5.493-3.169-.317-.549h0l.313.543,6.439-3.714,6.44-3.715-.317-.55h0l.313.543,5.493-3.169v5.98l-6.124,3.533Zm-.6,58.448-30.937-17.862V445.566l5.492,3.171v0l5.545,3.2.894.517h0l6.439,3.717.007,0h0l6.431,3.713h0l6.125,3.535V469.5c-4.019-2.322-25.934-14.979-26.11-15.064l0,0a.6.6,0,0,0-.8.242h-.1v22.307h.009c0,.016-.009.03-.009.047a.576.576,0,0,0,.123.341.547.547,0,0,0,.055.061.744.744,0,0,0,.085.1c.008.011.024.034.024.034l26.734,15.413Zm-25.759-43.068,4.4,2.54v14.93l-4.4,2.54Zm5.5,3.174,20.261,11.7v14.369l-20.261-11.607ZM338.464,477l4.125-2.381,21.018,12.134v4.761Zm25.776-14.672L333.3,444.474,338.8,441.3l-.316-.546.316.546,6.439-3.722h0l6.44-3.715-.291-.5.291.5,6.439-3.721h0l6.125-3.534,5.178,2.987-5.492,3.168c-.007,0-.009.011-.015.015l-6.425,3.706-6.439,3.715c-.007,0-.009.011-.015.015l-6.425,3.706a.63.63,0,0,0,0,1.092l6.44,3.722a.63.63,0,0,0,.63,0c.007,0,.009-.011.015-.015l6.424-3.706-.315-.546.315.546,6.44-3.722h0l6.439-3.714h0l6.124-3.539,5.178,2.993-5.493,3.169.286.5-.286-.5-6.44,3.722h0l-6.439,3.715h0l-6.135,3.546-.3.176,0,0a.624.624,0,0,0-.207.206.752.752,0,0,0-.036.073.632.632,0,0,0-.057.215c0,.017-.014.032-.014.05s.008.02.008.029a.623.623,0,0,0,.076.286h0a.629.629,0,0,0,.231.231l6.44,3.715,0-.007a.564.564,0,0,0,.622,0l0,.008,6.439-3.715-.315-.547.315.547,6.44-3.722h0l6.439-3.715h0L390,441.48l5.178,2.993-5.493,3.169.315.546-.315-.546-6.44,3.722h0l-6.439,3.714v0h0v0l-6.44,3.721h0Zm12.247,29.381-5.176-2.988V467.146l4.3-2.487.872-.5Zm12.879-7.437-5.176-2.988V459.71l4.963-2.867.213-.123Zm6.442-2.986-5.178,2.987V455.625a.63.63,0,0,0-.946-.546l-.906.523-5.536,3.2a.632.632,0,0,0-.316.547v22.307l0,.009v7.066l-5.178,2.988V463.061a.631.631,0,0,0-.946-.547l-1.219.705-5.223,3.015a.632.632,0,0,0-.316.547v22.307l0,.009v7.066l-5.178,2.987V463.426l6.124-3.534-.315-.546.315.546,12.879-7.436-.315-.547.315.547,6.44-3.722h0l5.493-3.169Z" fill="url(#linear-gradient)"/>
    <g id="Group_1708" data-name="Group 1708" transform="translate(409.985 445.116)">
      <g id="Group_1707" data-name="Group 1707">
        <path id="Path_6" data-name="Path 6" d="M439.858,469.922l-4.612,2.666a10.59,10.59,0,0,0,8.311,3.758,10.244,10.244,0,0,0,8.373-3.82q.4-.578,1.269-1.725a2.377,2.377,0,0,1,1.818-1.147,2.333,2.333,0,0,1,1.62.642,2.034,2.034,0,0,1,.7,1.559,2.724,2.724,0,0,1-.307,1.161,13.906,13.906,0,0,1-5.636,5.638,15.784,15.784,0,0,1-7.839,2.124,15.554,15.554,0,0,1,0-31.108,14.841,14.841,0,0,1,4.8.856,19.056,19.056,0,0,1,5.562,3.123q3.393,2.66,3.391,5.017a1.952,1.952,0,0,1-1.1,1.805l-16.35,9.451m-2.214-3.835,14.219-8.208a11.107,11.107,0,0,0-19.429,7.332,11.055,11.055,0,0,0,.578,3.551l4.633-2.675" transform="translate(-428.004 -449.67)" fill="#fff"/>
        <path id="Path_7" data-name="Path 7" d="M496.07,455.773a2.356,2.356,0,0,1-2.295,2.3,20.946,20.946,0,0,1-3.29-1.986,11,11,0,0,0-6.1-1.986,11.123,11.123,0,0,0,0,22.246,11.017,11.017,0,0,0,6.074-1.97,19.435,19.435,0,0,1,3.321-1.971,2.149,2.149,0,0,1,1.576.7,2.22,2.22,0,0,1,.689,1.589,2.529,2.529,0,0,1-.674,1.559,12.2,12.2,0,0,1-5.011,3.331,16.176,16.176,0,0,1-5.959,1.192,15.554,15.554,0,0,1,0-31.108,16.135,16.135,0,0,1,5.959,1.2,12.45,12.45,0,0,1,5.011,3.373A2.368,2.368,0,0,1,496.07,455.773Z" transform="translate(-435.622 -449.67)" fill="#fff"/>
        <path id="Path_8" data-name="Path 8" d="M548.438,478.544a2.216,2.216,0,1,1-4.431,0V460.77a6.661,6.661,0,0,0-13.323,0v17.775a2.216,2.216,0,1,1-4.431,0V460.77a6.677,6.677,0,0,0-13.354,0v17.775a2.216,2.216,0,1,1-4.431,0V451.873a2.231,2.231,0,0,1,4.463.028,10.712,10.712,0,0,1,6.661-2.23,10.519,10.519,0,0,1,8.863,4.461,10.543,10.543,0,0,1,8.891-4.461,11.116,11.116,0,0,1,11.093,11.1Z" transform="translate(-443.014 -449.67)" fill="#fff"/>
      </g>
      <text id="Encryptometrics_" data-name="Encryptometrics
" transform="translate(0 35.751)" fill="#fff" font-size="9" font-family="ArialRoundedMTBold, Arial Rounded MT Bold" letter-spacing="0.04em"><tspan x="13.713" y="9">Encryptometrics</tspan></text>
    </g>
  </g>
</svg>
