<svg xmlns="http://www.w3.org/2000/svg" xmlns:xlink="http://www.w3.org/1999/xlink" width="190.416" height="78.255" viewBox="0 0 190.416 78.255">
  <defs>
    <linearGradient id="linear-gradient" x1="0.5" x2="0.5" y2="1" gradientUnits="objectBoundingBox">
      <stop offset="0" stop-color="#3bc9f8"/>
      <stop offset="1" stop-color="#675194"/>
    </linearGradient>
  </defs>
  <g id="Group_1789" data-name="Group 1789" transform="translate(-193.975 -418.57)">
    <path id="Path_1" data-name="Path 1" d="M261.6,437.893l-6.664-3.851a.656.656,0,0,0-.653,0l-5.685,3.286v-6.565a.652.652,0,0,0-.327-.565l-6.664-3.851a.652.652,0,0,0-.653,0l-5.685,3.285v-6.565a.652.652,0,0,0-.327-.565l-6.664-3.845a.652.652,0,0,0-.653,0L220.96,422.5l.326.565-.326-.565-6.664,3.851h0l-6.664,3.845.3.514-.3-.514-6.665,3.85h0l-6.663,3.844h0a.655.655,0,0,0-.326.566v38.475a.653.653,0,0,0,.326.565l33.321,19.238a.646.646,0,0,0,.327.088h0a.649.649,0,0,0,.327-.088l6.664-3.845a.652.652,0,0,0,.327-.565v-6.567l5.682,3.281a.647.647,0,0,0,.327.088h0a.664.664,0,0,0,.329-.087l6.664-3.845a.654.654,0,0,0,.327-.566v-6.566l5.682,3.281a.654.654,0,0,0,.327.087h0a.646.646,0,0,0,.329-.087L261.6,477.5a.654.654,0,0,0,.327-.566V438.459A.652.652,0,0,0,261.6,437.893ZM241.279,442.3l-.327-.565-6.664,3.851h0l-6.338,3.656-5.358-3.091,5.685-3.279c.007,0,.009-.012.015-.016l6.649-3.835-.327-.565.327.565,6.664-3.851h0l5.685-3.28v6.188l-6.338,3.657Zm-13.358-7.746-.3-.514-6.664,3.851h0l-6.344,3.659-5.352-3.094,5.685-3.28-.328-.568h0l.325.561,6.664-3.845,6.665-3.844-.328-.569h0l.325.562,5.685-3.28v6.188l-6.338,3.656Zm-.625,60.486-32.015-18.485V439.589l5.683,3.281h0l5.738,3.313.925.535h0l6.664,3.847.008,0h0l6.655,3.842h0l6.338,3.659v6.28c-4.159-2.4-26.838-15.5-27.021-15.59l-.005,0a.623.623,0,0,0-.833.25h-.1V472.1h.01a.456.456,0,0,0-.01.049.6.6,0,0,0,.128.353.572.572,0,0,0,.056.063.711.711,0,0,0,.088.1c.008.011.024.035.024.035l27.666,15.95Zm-26.657-44.569,4.553,2.628v15.451l-4.553,2.627Zm5.69,3.284,20.967,12.1v14.87l-20.967-12.012Zm-5.053,18.368,4.269-2.464L227.3,482.217v4.927Zm26.675-15.184-32.016-18.481,5.686-3.28-.327-.566.327.566,6.664-3.851h0l6.665-3.844-.3-.522.3.521,6.664-3.85h0l6.338-3.657,5.358,3.091-5.685,3.279c-.007,0-.009.012-.015.016L220.96,430.2l-6.665,3.845c-.007,0-.009.012-.015.016l-6.649,3.835a.652.652,0,0,0,0,1.131l6.664,3.85a.648.648,0,0,0,.327.088.658.658,0,0,0,.327-.088c.007,0,.009-.012.015-.016l6.649-3.835-.327-.565.327.565,6.664-3.851h0l6.664-3.845h0l6.337-3.663,5.359,3.1-5.686,3.28.3.514-.3-.514-6.664,3.851h0l-6.665,3.845h0l-6.349,3.669-.315.182,0,0a.639.639,0,0,0-.214.213.63.63,0,0,0-.037.076.618.618,0,0,0-.059.221c0,.019-.014.034-.014.052s.008.019.008.03a.63.63,0,0,0,.079.3h0a.658.658,0,0,0,.239.239l6.664,3.844,0-.006a.584.584,0,0,0,.644,0l.005.008,6.664-3.844-.327-.566.327.565,6.664-3.85h0l6.664-3.845h0l6.337-3.663,5.359,3.1-5.686,3.28.327.565-.327-.565-6.664,3.851h0l-6.665,3.844,0,0h0l0,0-6.664,3.85h0Zm12.674,30.406-5.357-3.092V461.922l4.453-2.574.9-.521Zm13.329-7.7-5.357-3.092V454.226l5.136-2.967.221-.128Zm6.666-3.091-5.359,3.092V450a.652.652,0,0,0-.979-.565l-.938.541-5.729,3.307a.654.654,0,0,0-.327.566v23.085l0,.009v7.312l-5.359,3.092V457.694a.652.652,0,0,0-.979-.565l-1.262.729-5.4,3.121a.652.652,0,0,0-.327.566v23.085l0,.009v7.312l-5.359,3.091V458.071l6.338-3.656-.327-.566.327.566,13.329-7.7-.327-.566.327.565,6.664-3.85h0l5.685-3.28Z" fill="url(#linear-gradient)"/>
    <g id="Group_1700" data-name="Group 1700" transform="translate(275.291 440.36)">
      <path id="Path_2" data-name="Path 2" d="M302.838,465.413l-4.773,2.759a10.96,10.96,0,0,0,8.6,3.889,10.6,10.6,0,0,0,8.665-3.953q.41-.6,1.313-1.786a2.459,2.459,0,0,1,1.882-1.187,2.418,2.418,0,0,1,1.676.664,2.1,2.1,0,0,1,.727,1.614,2.831,2.831,0,0,1-.317,1.2,14.391,14.391,0,0,1-5.833,5.835,16.336,16.336,0,0,1-8.113,2.2,16.1,16.1,0,0,1,0-32.193,15.359,15.359,0,0,1,4.965.886,19.706,19.706,0,0,1,5.755,3.232q3.512,2.753,3.51,5.192a2.021,2.021,0,0,1-1.138,1.868l-16.92,9.78m-2.291-3.968,14.715-8.494a11.494,11.494,0,0,0-20.107,7.587,11.417,11.417,0,0,0,.6,3.675l4.794-2.768" transform="translate(-290.57 -444.455)" fill="#fff"/>
      <path id="Path_3" data-name="Path 3" d="M359.585,450.77a2.437,2.437,0,0,1-2.375,2.381,21.694,21.694,0,0,1-3.4-2.055,11.382,11.382,0,0,0-6.317-2.056,11.511,11.511,0,0,0,0,23.021,11.4,11.4,0,0,0,6.286-2.039,20.09,20.09,0,0,1,3.435-2.04,2.224,2.224,0,0,1,1.631.727,2.3,2.3,0,0,1,.712,1.644,2.616,2.616,0,0,1-.7,1.613,12.635,12.635,0,0,1-5.186,3.447,16.74,16.74,0,0,1-6.167,1.233,16.1,16.1,0,0,1,0-32.193,16.7,16.7,0,0,1,6.167,1.238,12.89,12.89,0,0,1,5.186,3.491A2.453,2.453,0,0,1,359.585,450.77Z" transform="translate(-297.03 -444.455)" fill="#fff"/>
      <path id="Path_4" data-name="Path 4" d="M412.4,474.336a2.293,2.293,0,1,1-4.585,0V455.942a6.894,6.894,0,0,0-13.787,0v18.395a2.293,2.293,0,1,1-4.586,0V455.942a6.91,6.91,0,0,0-13.819,0v18.395a2.293,2.293,0,1,1-4.586,0v-27.6a2.309,2.309,0,0,1,4.618.029,11.088,11.088,0,0,1,6.894-2.308,10.884,10.884,0,0,1,9.171,4.617,10.912,10.912,0,0,1,9.2-4.617,11.505,11.505,0,0,1,11.48,11.491Z" transform="translate(-303.298 -444.455)" fill="#fff"/>
    </g>
  </g>
</svg>
