<svg id="social-linkedin-svgrepo-com" xmlns="http://www.w3.org/2000/svg" width="28.555" height="28.555" viewBox="0 0 28.555 28.555">
  <path id="Path_94" data-name="Path 94" d="M14.277,0A14.277,14.277,0,1,0,28.555,14.277,14.277,14.277,0,0,0,14.277,0Zm0,26.324A12.047,12.047,0,1,1,26.324,14.277,12.046,12.046,0,0,1,14.277,26.324Z" fill="#fff"/>
  <g id="Group_1774" data-name="Group 1774" transform="translate(7.144 7.133)">
    <g id="Group_1773" data-name="Group 1773">
      <path id="Path_95" data-name="Path 95" d="M128.094,142.168h2.677V131.46h-2.677ZM138.8,131.46a4.91,4.91,0,0,0-3.569,1.785V131.46h-2.677v10.708h2.677v-6.246a2.275,2.275,0,0,1,2.677-1.785c1.135.074,1.746,1.575,1.785,1.785v6.246l2.667.012v-7.413A3.341,3.341,0,0,0,138.8,131.46Zm-9.37-3.569a1.338,1.338,0,1,0,1.339,1.338A1.338,1.338,0,0,0,129.432,127.891Z" transform="translate(-128.094 -127.891)" fill="#fff" fill-rule="evenodd"/>
    </g>
  </g>
</svg>
