<svg id="social-youtube-svgrepo-com" xmlns="http://www.w3.org/2000/svg" width="28.555" height="28.555" viewBox="0 0 28.555 28.555">
  <path id="Path_92" data-name="Path 92" d="M14.277,0A14.277,14.277,0,1,0,28.555,14.277,14.277,14.277,0,0,0,14.277,0Zm0,26.324A12.047,12.047,0,1,1,26.324,14.277,12.046,12.046,0,0,1,14.277,26.324Z" fill="#fff"/>
  <path id="Path_93" data-name="Path 93" d="M132.844,128l-.566,2.2h-.057l-.594-2.2H130.7l1.172,3.653v1.537h.673v-1.638L133.776,128Zm2.931,2.4a1.153,1.153,0,0,0-.279-.795.762.762,0,0,0-.646-.325.885.885,0,0,0-.693.325.966.966,0,0,0-.316.769v1.7a1.1,1.1,0,0,0,.321.828.79.79,0,0,0,.671.3c.369,0,.416-.1.629-.295a1.071,1.071,0,0,0,.313-.819v-1.7Zm2.6-1.116h-.651v2.6a3.749,3.749,0,0,1-.478.55.125.125,0,0,1-.125-.064.335.335,0,0,1-.051-.208v-2.877h-.652v3.157a1.261,1.261,0,0,0,.152.734.537.537,0,0,0,.625-.089,2.026,2.026,0,0,0,.529-.668v.692h.651Zm3.907,7.857a2.637,2.637,0,0,0-2.607-2.667h-9.062A2.638,2.638,0,0,0,128,137.141v2.47a2.639,2.639,0,0,0,2.608,2.666h9.062a2.637,2.637,0,0,0,2.607-2.666Zm-3.593,3.83a.891.891,0,0,1-.7-.283,1.093,1.093,0,0,1-.256-.77v-1.534a1.819,1.819,0,0,1,.281-1.02.971.971,0,0,1,.722-.28.907.907,0,0,1,.7.255,2,2,0,0,1,.246,1.044v.647h-1.265v.864a.756.756,0,0,0,.067.375.244.244,0,0,0,.225.1.262.262,0,0,0,.227-.089.746.746,0,0,0,.067-.39v-.154h.68v.177a1.107,1.107,0,0,1-.248.789A.982.982,0,0,1,138.685,140.971Zm.309-2.47v-.12a2.27,2.27,0,0,0-.07-.607.253.253,0,0,0-.22-.093.263.263,0,0,0-.226.093,2.27,2.27,0,0,0-.07.607v.12Zm-2.528,2.479a.775.775,0,0,1-.358-.081.881.881,0,0,1-.29-.24v.273h-.686V135.78h.646v1.557a1.307,1.307,0,0,1,.33-.248.659.659,0,0,1,.316-.085.579.579,0,0,1,.492.231,1.107,1.107,0,0,1,.169.665v2.3a.927.927,0,0,1-.158.579A.564.564,0,0,1,136.466,140.98Zm-.02-3.042a.481.481,0,0,0-.13-.274.261.261,0,0,0-.213-.09.324.324,0,0,0-.146.034.7.7,0,0,0-.18.107v2.538a.726.726,0,0,0,.2.125.342.342,0,0,0,.163.04.217.217,0,0,0,.184-.078.4.4,0,0,0,.118-.244v-2.16Zm-2.64,2.567a1.733,1.733,0,0,1-.392.366.771.771,0,0,1-.395.112.413.413,0,0,1-.355-.158.772.772,0,0,1-.139-.473v-3.259h.658v3.019a.307.307,0,0,0,.043.18.171.171,0,0,0,.139.056.488.488,0,0,0,.23-.076,1.162,1.162,0,0,0,.251-.186v-2.993h.64v3.88h-.681V140.5Zm-1.914.464h-.654v-4.541H130.6v-.648h1.95v.648h-.659Zm2.918-8.462a.32.32,0,0,1-.248-.092.353.353,0,0,1-.088-.259v-1.81a.274.274,0,0,1,.093-.215.347.347,0,0,1,.242-.084.291.291,0,0,1,.22.084.267.267,0,0,1,.1.215v1.81a.348.348,0,0,1-.1.259A.28.28,0,0,1,134.811,132.507Z" transform="translate(-120.861 -120.861)" fill="#fff" fill-rule="evenodd"/>
</svg>
