<svg xmlns="http://www.w3.org/2000/svg" width="364.109" height="417.873" viewBox="0 0 364.109 417.873">
  <g id="Group_2613" data-name="Group 2613" transform="translate(-444.891 -2161.731)">
    <g id="Group_1777" data-name="Group 1777" transform="translate(3802.183 3734.302)">
      <g id="box-svgrepo-com" transform="translate(-3221.435 -1256.096)">
        <path id="Path_12" data-name="Path 12" d="M4,74.938V30.758a4.824,4.824,0,0,1,2.459-4.2l.088-.049L46.989,3.755l.308-.173a3.767,3.767,0,0,1,3.694,0L92.089,26.7a4.312,4.312,0,0,1,2.2,3.758v44.48a4.5,4.5,0,0,1-2.216,3.878L51.282,102.855a4.213,4.213,0,0,1-4.277,0L6.216,78.817A4.5,4.5,0,0,1,4,74.938Z" transform="translate(-4 -3.098)" fill="none" stroke="#e0e0e0" stroke-width="2"/>
        <path id="Path_13" data-name="Path 13" d="M12,62.786V12" transform="translate(33.143 38.231)" fill="none" stroke="#e0e0e0" stroke-width="2"/>
        <path id="Path_14" data-name="Path 14" d="M49.143,32.893,4,7.5" transform="translate(-4 17.338)" fill="none" stroke="#e0e0e0" stroke-width="2"/>
        <path id="Path_15" data-name="Path 15" d="M57.143,7.5,12,32.893" transform="translate(33.143 17.338)" fill="none" stroke="#e0e0e0" stroke-width="2"/>
      </g>
      <g id="box-svgrepo-com-2" data-name="box-svgrepo-com" transform="translate(-3221.435 -1413.811)">
        <path id="Path_12-2" data-name="Path 12" d="M4,74.938V30.758a4.824,4.824,0,0,1,2.459-4.2l.088-.049L46.989,3.755l.308-.173a3.767,3.767,0,0,1,3.694,0L92.089,26.7a4.312,4.312,0,0,1,2.2,3.758v44.48a4.5,4.5,0,0,1-2.216,3.878L51.282,102.855a4.213,4.213,0,0,1-4.277,0L6.216,78.817A4.5,4.5,0,0,1,4,74.938Z" transform="translate(-4 -3.098)" fill="none" stroke="#e0e0e0" stroke-width="2"/>
        <path id="Path_13-2" data-name="Path 13" d="M12,62.786V12" transform="translate(33.143 38.231)" fill="none" stroke="#e0e0e0" stroke-width="2"/>
        <path id="Path_14-2" data-name="Path 14" d="M49.143,32.893,4,7.5" transform="translate(-4 17.338)" fill="none" stroke="#e0e0e0" stroke-width="2"/>
        <path id="Path_15-2" data-name="Path 15" d="M57.143,7.5,12,32.893" transform="translate(33.143 17.338)" fill="none" stroke="#e0e0e0" stroke-width="2"/>
      </g>
      <g id="box-svgrepo-com-3" data-name="box-svgrepo-com" transform="translate(-3221.435 -1571.526)">
        <path id="Path_12-3" data-name="Path 12" d="M4,74.938V30.758a4.824,4.824,0,0,1,2.459-4.2l.088-.049L46.989,3.755l.308-.173a3.767,3.767,0,0,1,3.694,0L92.089,26.7a4.312,4.312,0,0,1,2.2,3.758v44.48a4.5,4.5,0,0,1-2.216,3.878L51.282,102.855a4.213,4.213,0,0,1-4.277,0L6.216,78.817A4.5,4.5,0,0,1,4,74.938Z" transform="translate(-4 -3.098)" fill="none" stroke="#e0e0e0" stroke-width="2"/>
        <path id="Path_13-3" data-name="Path 13" d="M12,62.786V12" transform="translate(33.143 38.231)" fill="none" stroke="#e0e0e0" stroke-width="2"/>
        <path id="Path_14-3" data-name="Path 14" d="M49.143,32.893,4,7.5" transform="translate(-4 17.338)" fill="none" stroke="#e0e0e0" stroke-width="2"/>
        <path id="Path_15-3" data-name="Path 15" d="M57.143,7.5,12,32.893" transform="translate(33.143 17.338)" fill="none" stroke="#e0e0e0" stroke-width="2"/>
      </g>
      <g id="box-svgrepo-com-4" data-name="box-svgrepo-com" transform="translate(-3086.578 -1492.669)">
        <path id="Path_12-4" data-name="Path 12" d="M4,74.938V30.758a4.824,4.824,0,0,1,2.459-4.2l.088-.049L46.989,3.755l.308-.173a3.767,3.767,0,0,1,3.694,0L92.089,26.7a4.312,4.312,0,0,1,2.2,3.758v44.48a4.5,4.5,0,0,1-2.216,3.878L51.282,102.855a4.213,4.213,0,0,1-4.277,0L6.216,78.817A4.5,4.5,0,0,1,4,74.938Z" transform="translate(-4 -3.098)" fill="none" stroke="#e0e0e0" stroke-width="2"/>
        <path id="Path_13-4" data-name="Path 13" d="M12,62.786V12" transform="translate(33.143 38.231)" fill="none" stroke="#e0e0e0" stroke-width="2"/>
        <path id="Path_14-4" data-name="Path 14" d="M49.143,32.893,4,7.5" transform="translate(-4 17.338)" fill="none" stroke="#e0e0e0" stroke-width="2"/>
        <path id="Path_15-4" data-name="Path 15" d="M57.143,7.5,12,32.893" transform="translate(33.143 17.338)" fill="none" stroke="#e0e0e0" stroke-width="2"/>
      </g>
      <g id="box-svgrepo-com-5" data-name="box-svgrepo-com" transform="translate(-3356.292 -1492.669)">
        <path id="Path_12-5" data-name="Path 12" d="M4,74.938V30.758a4.824,4.824,0,0,1,2.459-4.2l.088-.049L46.989,3.755l.308-.173a3.767,3.767,0,0,1,3.694,0L92.089,26.7a4.312,4.312,0,0,1,2.2,3.758v44.48a4.5,4.5,0,0,1-2.216,3.878L51.282,102.855a4.213,4.213,0,0,1-4.277,0L6.216,78.817A4.5,4.5,0,0,1,4,74.938Z" transform="translate(-4 -3.098)" fill="none" stroke="#e0e0e0" stroke-width="2"/>
        <path id="Path_13-5" data-name="Path 13" d="M12,62.786V12" transform="translate(33.143 38.231)" fill="none" stroke="#e0e0e0" stroke-width="2"/>
        <path id="Path_14-5" data-name="Path 14" d="M49.143,32.893,4,7.5" transform="translate(-4 17.338)" fill="none" stroke="#e0e0e0" stroke-width="2"/>
        <path id="Path_15-5" data-name="Path 15" d="M57.143,7.5,12,32.893" transform="translate(33.143 17.338)" fill="none" stroke="#e0e0e0" stroke-width="2"/>
      </g>
      <g id="box-svgrepo-com-6" data-name="box-svgrepo-com" transform="translate(-3086.578 -1334.953)">
        <path id="Path_12-6" data-name="Path 12" d="M4,74.938V30.758a4.824,4.824,0,0,1,2.459-4.2l.088-.049L46.989,3.755l.308-.173a3.767,3.767,0,0,1,3.694,0L92.089,26.7a4.312,4.312,0,0,1,2.2,3.758v44.48a4.5,4.5,0,0,1-2.216,3.878L51.282,102.855a4.213,4.213,0,0,1-4.277,0L6.216,78.817A4.5,4.5,0,0,1,4,74.938Z" transform="translate(-4 -3.098)" fill="none" stroke="#e0e0e0" stroke-width="2"/>
        <path id="Path_13-6" data-name="Path 13" d="M12,62.786V12" transform="translate(33.143 38.231)" fill="none" stroke="#e0e0e0" stroke-width="2"/>
        <path id="Path_14-6" data-name="Path 14" d="M49.143,32.893,4,7.5" transform="translate(-4 17.338)" fill="none" stroke="#e0e0e0" stroke-width="2"/>
        <path id="Path_15-6" data-name="Path 15" d="M57.143,7.5,12,32.893" transform="translate(33.143 17.338)" fill="none" stroke="#e0e0e0" stroke-width="2"/>
      </g>
      <g id="box-svgrepo-com-7" data-name="box-svgrepo-com" transform="translate(-3356.292 -1334.953)">
        <path id="Path_12-7" data-name="Path 12" d="M4,74.938V30.758a4.824,4.824,0,0,1,2.459-4.2l.088-.049L46.989,3.755l.308-.173a3.767,3.767,0,0,1,3.694,0L92.089,26.7a4.312,4.312,0,0,1,2.2,3.758v44.48a4.5,4.5,0,0,1-2.216,3.878L51.282,102.855a4.213,4.213,0,0,1-4.277,0L6.216,78.817A4.5,4.5,0,0,1,4,74.938Z" transform="translate(-4 -3.098)" fill="none" stroke="#e0e0e0" stroke-width="2"/>
        <path id="Path_13-7" data-name="Path 13" d="M12,62.786V12" transform="translate(33.143 38.231)" fill="none" stroke="#e0e0e0" stroke-width="2"/>
        <path id="Path_14-7" data-name="Path 14" d="M49.143,32.893,4,7.5" transform="translate(-4 17.338)" fill="none" stroke="#e0e0e0" stroke-width="2"/>
        <path id="Path_15-7" data-name="Path 15" d="M57.143,7.5,12,32.893" transform="translate(33.143 17.338)" fill="none" stroke="#e0e0e0" stroke-width="2"/>
      </g>
      <line id="Line_7" data-name="Line 7" y2="80.062" transform="translate(-3312.258 -1386.945)" fill="none" stroke="#e0e0e0" stroke-width="2" stroke-dasharray="3 3"/>
      <line id="Line_8" data-name="Line 8" y2="80.062" transform="translate(-3041.435 -1386.945)" fill="none" stroke="#e0e0e0" stroke-width="2" stroke-dasharray="3 3"/>
      <line id="Line_10" data-name="Line 10" y2="80.062" transform="translate(-3176.291 -1309.226)" fill="none" stroke="#e0e0e0" stroke-width="2" stroke-dasharray="3 3"/>
      <line id="Line_11" data-name="Line 11" x1="65.047" y2="38.315" transform="translate(-3129.273 -1429.222)" fill="none" stroke="#e0e0e0" stroke-width="2" stroke-dasharray="3 3"/>
      <line id="Line_14" data-name="Line 14" x2="65.047" y2="38.315" transform="translate(-3288.141 -1428.079)" fill="none" stroke="#e0e0e0" stroke-width="2" stroke-dasharray="3 3"/>
      <line id="Line_15" data-name="Line 15" x2="38.741" y2="24.019" transform="translate(-3129.26 -1336.632)" fill="none" stroke="#e0e0e0" stroke-width="2" stroke-dasharray="3 3"/>
      <line id="Line_16" data-name="Line 16" x1="38.741" y2="24.019" transform="translate(-3264.134 -1336.836)" fill="none" stroke="#e0e0e0" stroke-width="2" stroke-dasharray="3 3"/>
      <line id="Line_12" data-name="Line 12" x1="65.047" y2="38.315" transform="translate(-3129.273 -1270.343)" fill="none" stroke="#e0e0e0" stroke-width="2" stroke-dasharray="3 3"/>
      <line id="Line_17" data-name="Line 17" x1="65.047" y2="38.315" transform="translate(-3265.282 -1506.946)" fill="none" stroke="#e0e0e0" stroke-width="2" stroke-dasharray="3 3"/>
      <line id="Line_13" data-name="Line 13" x2="65.047" y2="38.315" transform="translate(-3288.141 -1269.2)" fill="none" stroke="#e0e0e0" stroke-width="2" stroke-dasharray="3 3"/>
      <line id="Line_18" data-name="Line 18" x2="65.047" y2="38.315" transform="translate(-3153.275 -1506.946)" fill="none" stroke="#e0e0e0" stroke-width="2" stroke-dasharray="3 3"/>
      <line id="Line_9" data-name="Line 9" y2="48.037" transform="translate(-3176.291 -1465.8)" fill="none" stroke="#e0e0e0" stroke-width="2" stroke-dasharray="3 3"/>
    </g>
    <g id="Group_1756" data-name="Group 1756" transform="translate(116 5)">
      <g id="Group_1754" data-name="Group 1754" transform="translate(-789.729 1868.393)">
        <path id="Path_86" data-name="Path 86" d="M-983.719,291V398.393h75.542V315.826l-11.759-11.759L-933,291Z" transform="translate(2106.448 153.607)" fill="#fff" stroke="#6543ac" stroke-width="4"/>
        <path id="Path_87" data-name="Path 87" d="M-936.964,444.607v25.544h24.943" transform="translate(2110 1)" fill="#fff" stroke="#6543ac" stroke-width="4"/>
        <line id="Line_27" data-name="Line 27" x2="41" transform="translate(1139.5 484.5)" fill="none" stroke="#3bc9f8" stroke-linecap="round" stroke-width="4"/>
        <line id="Line_28" data-name="Line 28" x2="41" transform="translate(1139.5 498.5)" fill="none" stroke="#3bc9f8" stroke-linecap="round" stroke-width="4"/>
        <line id="Line_29" data-name="Line 29" x2="41" transform="translate(1139.5 512.5)" fill="none" stroke="#3bc9f8" stroke-linecap="round" stroke-width="4"/>
        <line id="Line_30" data-name="Line 30" x2="41" transform="translate(1139.5 526.5)" fill="none" stroke="#3bc9f8" stroke-linecap="round" stroke-width="4"/>
      </g>
      <g id="Group_1755" data-name="Group 1755" transform="translate(-649.854 1868.393)">
        <path id="Path_86-2" data-name="Path 86" d="M-983.719,291V398.393h75.542V315.826l-11.759-11.759L-933,291Z" transform="translate(2106.448 153.607)" fill="#3bc9f8" stroke="#6543ac" stroke-width="4"/>
        <path id="Path_87-2" data-name="Path 87" d="M-936.964,444.607v25.544h24.943" transform="translate(2110 1)" fill="#fff" stroke="#6543ac" stroke-width="4"/>
      </g>
      <text id="_" data-name="#" transform="translate(476 2322)" fill="#fff" font-size="75" font-family="Nunito-Black, Nunito" font-weight="800"><tspan x="10.5" y="76">#</tspan></text>
      <text id="A94a8fe_5ccb19b_A61c4c0_873d391_987982f" data-name="A94a8fe
5ccb19b
A61c4c0
873d391
987982f" transform="translate(602 2307)" fill="#6543ac" font-size="18" font-family="Courier-Bold, Courier" font-weight="700"><tspan x="-37.806" y="14">A94a8fe</tspan><tspan x="-37.806" y="39">5ccb19b</tspan><tspan x="-37.806" y="64">A61c4c0</tspan><tspan x="-37.806" y="89">873d391</tspan><tspan x="-37.806" y="114">987982f</tspan></text>
    </g>
  </g>
</svg>
