<svg xmlns="http://www.w3.org/2000/svg" width="16" height="10" viewBox="0 0 16 10">
  <path id="email-envelope-mail-svgrepo-com" d="M22.949,30.953a.255.255,0,0,0,.015-.082V21.406a.253.253,0,0,0-.015-.082l0-.011a.264.264,0,0,0-.051-.082l0-.005,0,0a.279.279,0,0,0-.082-.058l-.007,0a.284.284,0,0,0-.095-.022H7.224a.287.287,0,0,0-.1.022l-.005,0a.275.275,0,0,0-.083.058l0,0,0,0a.265.265,0,0,0-.051.082s0,.007,0,.011a.253.253,0,0,0-.015.082v9.466a.255.255,0,0,0,.015.083l0,.011a.266.266,0,0,0,.052.082l0,0,0,0a.279.279,0,0,0,.03.025l.014.011a.261.261,0,0,0,.039.021l.01,0a.289.289,0,0,0,.109.022H22.685a.285.285,0,0,0,.109-.022l.015-.008a.289.289,0,0,0,.034-.018l.016-.013a.251.251,0,0,0,.027-.023l0,0,0-.005a.265.265,0,0,0,.051-.082A.1.1,0,0,0,22.949,30.953ZM7.521,22.012l4.686,4.109L7.521,30.262Zm9.6,3.907a.266.266,0,0,0-.056.039c-.006.006-.008.015-.014.022l-2.092,1.834-7-6.141H21.968Zm-4.506.563,2.157,1.891a.287.287,0,0,0,.375,0l2.13-1.867,4.685,4.1H7.956Zm5.075-.339,4.713-4.132v8.255Z" transform="translate(-6.964 -21.139)" fill="#6543ac"/>
</svg>
