<svg id="social-twitter-svgrepo-com" xmlns="http://www.w3.org/2000/svg" width="28.555" height="28.555" viewBox="0 0 28.555 28.555">
  <path id="Path_90" data-name="Path 90" d="M14.277,0A14.277,14.277,0,1,0,28.555,14.277,14.277,14.277,0,0,0,14.277,0Zm0,26.324A12.047,12.047,0,1,1,26.324,14.277,12.046,12.046,0,0,1,14.277,26.324Z" fill="#fff"/>
  <path id="Path_91" data-name="Path 91" d="M142.276,145.5a4.9,4.9,0,0,1-1.635.5,3.347,3.347,0,0,0,1.228-1.723,4.559,4.559,0,0,1-1.838.7,0,0,0,0,0,0,0A2.842,2.842,0,0,0,137.9,144a3.065,3.065,0,0,0-2.945,3.172,3.36,3.36,0,0,0,.076.707h0a8.285,8.285,0,0,1-6.239-3.29,3.322,3.322,0,0,0,.893,4.191,1.8,1.8,0,0,1-1.286-.357,3.033,3.033,0,0,0,2.272,3.1,2.151,2.151,0,0,1-1.226.1,2.835,2.835,0,0,0,2.633,2.154A4.619,4.619,0,0,1,128,155.09a8.378,8.378,0,0,0,4.607,1.4c4.752,0,8.442-4.147,8.244-9.263,0-.006,0-.012,0-.017s0-.028,0-.04,0-.031,0-.048A5.306,5.306,0,0,0,142.276,145.5Z" transform="translate(-120.86 -135.969)" fill="#fff"/>
</svg>
