<svg id="social-facebook-svgrepo-com" xmlns="http://www.w3.org/2000/svg" width="28.555" height="28.555" viewBox="0 0 28.555 28.555">
  <path id="Path_96" data-name="Path 96" d="M14.277,0A14.277,14.277,0,1,0,28.555,14.277,14.277,14.277,0,0,0,14.277,0Zm0,26.324A12.047,12.047,0,1,1,26.324,14.277,12.046,12.046,0,0,1,14.277,26.324Z" fill="#fff"/>
  <path id="Path_97" data-name="Path 97" d="M202.026,132.953h-2.484v-1.813c0-.556.575-.685.844-.685h1.6V128.01l-1.839-.01a2.817,2.817,0,0,0-3.081,2.993v1.96h-1.82v2.52h1.82v6.8h2.472v-6.8h2.1Z" transform="translate(-184.361 -120.861)" fill="#fff" fill-rule="evenodd"/>
</svg>
