<svg xmlns="http://www.w3.org/2000/svg" xmlns:xlink="http://www.w3.org/1999/xlink" width="195.409" height="80.307" viewBox="0 0 195.409 80.307">
  <defs>
    <linearGradient id="linear-gradient" x1="0.5" x2="0.5" y2="1" gradientUnits="objectBoundingBox">
      <stop offset="0" stop-color="#01a0c6"/>
      <stop offset="1" stop-color="#13017c"/>
    </linearGradient>
  </defs>
  <g id="Group_3" data-name="Group 3" transform="translate(-188.059 -377.803)">
    <path id="Path_1" data-name="Path 1" d="M257.456,397.634l-6.839-3.952a.667.667,0,0,0-.67,0l-5.834,3.372v-6.738a.669.669,0,0,0-.335-.58l-6.839-3.952a.671.671,0,0,0-.67,0l-5.834,3.372v-6.737a.671.671,0,0,0-.335-.581l-6.839-3.945a.667.667,0,0,0-.67,0l-6.839,3.945.335.581-.335-.581-6.839,3.952h0l-6.839,3.945.3.527-.3-.527-6.839,3.952h0l-6.839,3.945h0a.668.668,0,0,0-.334.58V437.7a.67.67,0,0,0,.334.581l34.195,19.743a.671.671,0,0,0,.335.089h0a.668.668,0,0,0,.334-.089l6.839-3.945a.671.671,0,0,0,.335-.58v-6.738l5.831,3.367a.672.672,0,0,0,.335.089h0a.66.66,0,0,0,.337-.089l6.839-3.945a.67.67,0,0,0,.335-.581v-6.738l5.831,3.367a.672.672,0,0,0,.335.09h0a.67.67,0,0,0,.337-.09l6.839-3.945a.669.669,0,0,0,.335-.58V398.213A.669.669,0,0,0,257.456,397.634ZM236.6,402.159l-.335-.581-6.839,3.952h0l-6.5,3.752-5.5-3.171,5.833-3.366c.007,0,.009-.012.016-.016l6.823-3.935-.335-.581.335.58,6.839-3.952h0l5.835-3.366v6.35l-6.5,3.752Zm-13.709-7.95-.3-.527-6.839,3.952h0l-6.509,3.755-5.494-3.174,5.834-3.366-.336-.584h0l.333.577,6.839-3.945,6.839-3.945-.337-.583h0l.333.576,5.835-3.366v6.35l-6.5,3.752Zm-.642,62.072L189.4,437.312V399.374l5.833,3.367,0,0,5.888,3.4.949.548h0l6.839,3.949.007,0h0l6.829,3.943v0l6.5,3.754v6.445c-4.268-2.466-27.541-15.908-27.729-16l-.006,0a.649.649,0,0,0-.291-.073.659.659,0,0,0-.563.329h-.106V432.74h.01a.5.5,0,0,0-.01.049.617.617,0,0,0,.131.363.663.663,0,0,0,.057.065.731.731,0,0,0,.091.1c.009.011.024.036.024.036l28.392,16.369ZM194.9,410.542l4.672,2.7V429.1l-4.672,2.7Zm5.838,3.371,21.517,12.421v15.261l-21.517-12.328Zm-5.185,18.849,4.382-2.53,22.32,12.888v5.056Zm27.374-15.582L190.07,398.213l5.834-3.365-.334-.581.334.58,6.839-3.951h0l6.839-3.945-.308-.536.308.536L216.422,383h0l6.5-3.752,5.5,3.171-5.833,3.366c-.007,0-.01.012-.016.016l-6.823,3.937-6.839,3.945c-.007,0-.01.012-.016.016l-6.823,3.936a.67.67,0,0,0,0,1.16l6.839,3.952a.668.668,0,0,0,.67,0c.007,0,.009-.012.016-.016l6.823-3.935-.335-.581.335.58,6.839-3.952h0L230.1,390.9h0l6.5-3.758,5.5,3.178-5.834,3.365.3.528-.3-.527-6.839,3.952h0l-6.839,3.945h0l-6.516,3.765-.323.187,0,0a.655.655,0,0,0-.219.219.5.5,0,0,0-.038.078.648.648,0,0,0-.061.227c0,.019-.014.035-.014.054s.008.02.009.031a.649.649,0,0,0,.08.3h0a.666.666,0,0,0,.244.245l6.839,3.945,0-.007a.645.645,0,0,0,.329.1.657.657,0,0,0,.333-.1l0,.009,6.839-3.945-.335-.58.335.58,6.839-3.952h0l6.839-3.945h0l6.5-3.759,5.5,3.178-5.834,3.366.335.581-.335-.581-6.839,3.952h0l-6.839,3.945,0,0h0l0,0-6.839,3.951h0Zm13.006,31.2-5.5-3.173V422.292l4.57-2.641.926-.535Zm13.678-7.9-5.5-3.173V414.394l5.27-3.045.226-.13Zm6.842-3.172-5.5,3.172v-30.43a.67.67,0,0,0-1-.58l-.962.556-5.88,3.394a.67.67,0,0,0-.334.58V437.7l0,.01v7.5l-5.5,3.172v-30.43a.669.669,0,0,0-1-.58l-1.295.748-5.547,3.2a.672.672,0,0,0-.334.581v23.691l0,.01v7.5l-5.5,3.173V418.341l6.5-3.752-.335-.581.335.58,13.678-7.9-.335-.58.335.58,6.839-3.952h0l5.835-3.366Z" transform="translate(0 0)" fill="url(#linear-gradient)"/>
    <g id="Group_2" data-name="Group 2" transform="translate(271.507 401.029)">
      <path id="Path_2" data-name="Path 2" d="M297.244,426.2l-4.9,2.831a11.248,11.248,0,0,0,8.827,3.992,10.881,10.881,0,0,0,8.892-4.057q.421-.616,1.347-1.832a2.525,2.525,0,0,1,1.932-1.218,2.481,2.481,0,0,1,1.719.681,2.163,2.163,0,0,1,.746,1.656,2.906,2.906,0,0,1-.325,1.234,14.77,14.77,0,0,1-5.987,5.988,16.767,16.767,0,0,1-8.325,2.255,16.519,16.519,0,0,1,0-33.037,15.744,15.744,0,0,1,5.1.91,20.231,20.231,0,0,1,5.906,3.316q3.6,2.826,3.6,5.329a2.075,2.075,0,0,1-1.168,1.918L297.244,426.2m-2.352-4.072,15.1-8.718a11.8,11.8,0,0,0-20.634,7.787,11.735,11.735,0,0,0,.612,3.77l4.921-2.84" transform="translate(-284.654 -404.688)" fill="#13017c"/>
      <path id="Path_3" data-name="Path 3" d="M354.408,411.17a2.5,2.5,0,0,1-2.437,2.442,22.179,22.179,0,0,1-3.494-2.109,11.68,11.68,0,0,0-6.483-2.109,11.813,11.813,0,0,0,0,23.625,11.7,11.7,0,0,0,6.451-2.092,20.663,20.663,0,0,1,3.526-2.094,2.284,2.284,0,0,1,1.674.746,2.357,2.357,0,0,1,.731,1.688,2.689,2.689,0,0,1-.714,1.654,12.971,12.971,0,0,1-5.322,3.539,17.192,17.192,0,0,1-6.328,1.265,16.519,16.519,0,0,1,0-33.037,17.132,17.132,0,0,1,6.328,1.271,13.239,13.239,0,0,1,5.322,3.583A2.519,2.519,0,0,1,354.408,411.17Z" transform="translate(-290.212 -404.688)" fill="#13017c"/>
      <path id="Path_4" data-name="Path 4" d="M407.566,435.354a2.353,2.353,0,1,1-4.707,0V416.477a7.074,7.074,0,0,0-14.149,0v18.877a2.353,2.353,0,1,1-4.706,0V416.477a7.091,7.091,0,0,0-14.182,0v18.877a2.353,2.353,0,1,1-4.707,0V407.028a2.37,2.37,0,0,1,4.739.029,11.373,11.373,0,0,1,7.074-2.37,11.169,11.169,0,0,1,9.412,4.738,11.2,11.2,0,0,1,9.443-4.738,11.808,11.808,0,0,1,11.781,11.792Z" transform="translate(-295.605 -404.688)" fill="#13017c"/>
    </g>
  </g>
</svg>
